<?xml version="1.0" standalone="no"?>
<!DOCTYPE svg PUBLIC "-//W3C//DTD SVG 20010904//EN"
 "http://www.w3.org/TR/2001/REC-SVG-20010904/DTD/svg10.dtd">
<svg version="1.0" xmlns="http://www.w3.org/2000/svg"
 width="129.000000pt" height="117.000000pt" viewBox="0 0 129.000000 117.000000"
 preserveAspectRatio="xMidYMid meet">
<metadata>
Created by potrace 1.10, written by Peter Selinger 2001-2011
</metadata>
<g transform="translate(0.000000,117.000000) scale(0.050000,-0.050000)"
fill="#000000" stroke="none">
<path d="M887 1681 c-537 -128 -386 -820 273 -1245 l170 -110 180 120 c544
364 740 832 466 1112 -165 168 -481 175 -615 13 -24 -28 -33 -26 -97 22 -124
95 -238 121 -377 88z m235 -182 c44 -22 104 -76 134 -119 67 -97 67 -97 145 1
273 346 686 62 488 -335 -85 -172 -461 -526 -558 -526 -98 0 -486 362 -561
523 -149 321 67 601 352 456z"/>
</g>
</svg>
