 <svg  version="1.0" xmlns="http://www.w3.org/2000/svg"  width="300.000000pt" height="300.000000pt" viewBox="0 0 300.000000 300.000000"  preserveAspectRatio="xMidYMid meet">  <g transform="translate(0.000000,300.000000) scale(0.100000,-0.100000)" fill="#0a0a0a" stroke="none"> <path d="M205 1783 c-256 -92 -272 -444 -26 -556 68 -32 179 -30 245 2 63 31 122 90 149 150 29 64 29 178 0 242 -62 137 -231 211 -368 162z"/> <path d="M1414 1786 c-102 -32 -184 -124 -206 -230 -33 -155 75 -315 235 -348 202 -42 392 147 349 348 -36 173 -214 281 -378 230z"/> <path d="M2614 1786 c-213 -69 -282 -338 -127 -493 63 -63 124 -88 213 -88 59 0 85 5 124 24 63 31 122 90 149 150 30 64 30 178 0 242 -27 60 -92 125 -151 151 -57 26 -154 32 -208 14z"/> </g> </svg> 