<?xml version="1.0" standalone="no"?>
<!DOCTYPE svg PUBLIC "-//W3C//DTD SVG 20010904//EN"
 "http://www.w3.org/TR/2001/REC-SVG-20010904/DTD/svg10.dtd">
<svg version="1.0" xmlns="http://www.w3.org/2000/svg"
 width="107.000000pt" height="112.000000pt" viewBox="0 0 107.000000 112.000000"
 preserveAspectRatio="xMidYMid meet">
<metadata>
Created by potrace 1.10, written by Peter Selinger 2001-2011
</metadata>
<g transform="translate(0.000000,112.000000) scale(0.100000,-0.100000)"
fill="#000000" stroke="none">
<path d="M333 900 c-66 -27 -128 -87 -161 -158 -35 -75 -36 -173 -2 -250 42
-97 162 -182 257 -182 l33 0 0 -70 c0 -38 2 -70 5 -70 2 0 79 42 171 92 245
137 289 189 289 348 0 101 -21 156 -84 219 -77 77 -104 85 -291 88 -146 3
-171 0 -217 -17z m397 -80 c92 -52 141 -158 119 -259 -17 -78 -55 -122 -161
-181 -51 -29 -107 -61 -124 -71 l-31 -19 5 50 5 50 -46 -6 c-104 -15 -206 37
-251 127 -65 132 0 284 142 330 15 4 88 7 162 6 123 -2 139 -4 180 -27z m-225
-505 c10 -19 26 -37 37 -41 19 -6 19 -7 -8 -25 -33 -21 -35 -20 -40 23 -2 17
-9 37 -14 42 -6 6 -10 16 -10 23 0 25 19 13 35 -22z"/>
</g>
</svg>
