<?xml version="1.0" standalone="no"?>
<!DOCTYPE svg PUBLIC "-//W3C//DTD SVG 20010904//EN"
 "http://www.w3.org/TR/2001/REC-SVG-20010904/DTD/svg10.dtd">
<svg version="1.0" xmlns="http://www.w3.org/2000/svg"
 width="115.000000pt" height="121.000000pt" viewBox="0 0 115.000000 121.000000"
 preserveAspectRatio="xMidYMid meet">
<metadata>
Created by potrace 1.10, written by Peter Selinger 2001-2011
</metadata>
<g transform="translate(0.000000,121.000000) scale(0.050000,-0.050000)"
fill="#000000" stroke="none">
<path d="M400 1641 l-170 -158 55 -56 55 -56 80 79 80 78 0 -366 c0 -548 45
-602 496 -602 l244 0 0 80 0 80 -250 0 c-336 0 -330 -7 -330 335 0 140 -6 305
-13 365 l-12 110 78 -75 c94 -89 96 -90 155 -22 l45 53 -158 152 c-88 84 -165
154 -172 157 -7 3 -89 -67 -183 -154z"/>
<path d="M1080 1720 l0 -80 228 0 c355 0 352 5 352 -469 0 -182 -4 -331 -10
-331 -5 0 -41 34 -79 75 l-69 75 -59 -60 -59 -60 174 -163 174 -163 144 140
c151 147 181 221 113 277 -26 21 -43 13 -110 -52 l-79 -77 0 366 c0 545 -46
602 -486 602 l-234 0 0 -80z"/>
</g>
</svg>
