<?xml version="1.0" standalone="no"?>
<!DOCTYPE svg PUBLIC "-//W3C//DTD SVG 20010904//EN"
 "http://www.w3.org/TR/2001/REC-SVG-20010904/DTD/svg10.dtd">
<svg version="1.0" xmlns="http://www.w3.org/2000/svg"
 width="56.000000pt" height="50.000000pt" viewBox="0 0 56.000000 50.000000"
 preserveAspectRatio="xMidYMid meet">
<metadata>
Created by potrace 1.10, written by Peter Selinger 2001-2011
</metadata>
<g transform="translate(0.000000,50.000000) scale(0.100000,-0.100000)"
fill="#000000" stroke="none">
<path d="M256 379 c-10 -14 -21 -19 -32 -15 -23 9 -56 -22 -49 -45 4 -12 -1
-23 -14 -31 -27 -17 -27 -50 0 -66 13 -8 18 -19 15 -29 -9 -23 23 -55 47 -47
12 4 24 -1 33 -15 19 -27 39 -27 58 0 9 14 21 19 33 15 24 -8 56 24 47 47 -3
10 2 21 15 29 27 16 27 49 0 66 -13 8 -18 19 -14 31 7 23 -26 54 -49 45 -11
-4 -22 1 -32 15 -8 11 -21 21 -29 21 -8 0 -21 -10 -29 -21z m88 -44 c15 0 20
-5 18 -19 -2 -10 6 -28 17 -40 l21 -23 -20 -18 c-11 -10 -19 -28 -18 -39 2
-16 -2 -20 -18 -19 -12 1 -30 -7 -39 -17 -17 -19 -19 -19 -38 -3 -10 10 -29
18 -41 18 -15 0 -20 6 -19 21 1 12 -7 30 -17 39 -19 17 -19 19 -3 38 10 10 18
29 18 41 0 15 6 20 21 19 12 -1 30 7 39 17 17 19 19 19 38 3 10 -10 29 -18 41
-18z"/>
<path d="M252 288 c-15 -15 -15 -51 0 -66 15 -15 51 -15 66 0 28 28 7 78 -33
78 -12 0 -26 -5 -33 -12z m47 -44 c-9 -11 -15 -12 -25 -3 -11 9 -12 15 -3 25
9 11 15 12 25 3 11 -9 12 -15 3 -25z"/>
</g>
</svg>
