<?xml version="1.0" standalone="no"?>
<!DOCTYPE svg PUBLIC "-//W3C//DTD SVG 20010904//EN"
 "http://www.w3.org/TR/2001/REC-SVG-20010904/DTD/svg10.dtd">
<svg version="1.0" xmlns="http://www.w3.org/2000/svg"
 width="61.000000pt" height="55.000000pt" viewBox="0 0 61.000000 55.000000"
 preserveAspectRatio="xMidYMid meet">
<metadata>
Created by potrace 1.10, written by Peter Selinger 2001-2011
</metadata>
<g transform="translate(0.000000,55.000000) scale(0.100000,-0.100000)"
fill="#000000" stroke="none">
<path d="M269 446 c-13 -6 -30 -23 -38 -37 -12 -22 -12 -29 0 -54 40 -84 165
-32 129 54 -15 37 -57 54 -91 37z m49 -38 c30 -30 -4 -77 -41 -57 -29 17 -15
69 18 69 6 0 16 -5 23 -12z"/>
<path d="M240 283 c-44 -16 -83 -72 -94 -135 l-7 -38 156 0 c173 0 166 -4 145
72 -6 21 -27 51 -50 72 -35 31 -47 36 -88 35 -26 0 -54 -3 -62 -6z m124 -52
c17 -15 46 -63 46 -76 0 -3 -52 -5 -115 -5 -63 0 -115 4 -115 9 0 4 10 23 23
42 36 54 116 69 161 30z"/>
</g>
</svg>
