<?xml version="1.0" standalone="no"?>
<!DOCTYPE svg PUBLIC "-//W3C//DTD SVG 20010904//EN"
 "http://www.w3.org/TR/2001/REC-SVG-20010904/DTD/svg10.dtd">
<svg version="1.0" xmlns="http://www.w3.org/2000/svg"
 width="69.000000pt" height="55.000000pt" viewBox="0 0 69.000000 55.000000"
 preserveAspectRatio="xMidYMid meet">
<metadata>
Created by potrace 1.10, written by Peter Selinger 2001-2011
</metadata>
<g transform="translate(0.000000,55.000000) scale(0.100000,-0.100000)"
fill="#000000" stroke="none">
<path d="M235 426 c-103 -45 -124 -181 -40 -255 45 -39 92 -48 153 -28 l47 16
40 -40 c32 -31 44 -36 53 -27 9 9 3 21 -29 54 l-42 43 18 37 c56 119 -78 253
-200 200z m109 -36 c33 -12 66 -66 66 -105 0 -16 -9 -45 -20 -63 -58 -95 -210
-51 -210 62 0 87 80 138 164 106z"/>
</g>
</svg>
