<?xml version="1.0" standalone="no"?>
<!DOCTYPE svg PUBLIC "-//W3C//DTD SVG 20010904//EN"
 "http://www.w3.org/TR/2001/REC-SVG-20010904/DTD/svg10.dtd">
<svg version="1.0" xmlns="http://www.w3.org/2000/svg"
 width="64.000000pt" height="61.000000pt" viewBox="0 0 64.000000 61.000000"
 preserveAspectRatio="xMidYMid meet">
<metadata>
Created by potrace 1.10, written by Peter Selinger 2001-2011
</metadata>
<g transform="translate(0.000000,61.000000) scale(0.100000,-0.100000)"
fill="#000000" stroke="none">
<path d="M243 433 l-83 -57 0 -133 0 -134 73 3 72 3 3 73 c3 69 4 72 27 72 23
0 24 -3 27 -72 l3 -73 75 0 75 0 0 130 0 130 -84 58 c-47 31 -90 57 -95 57 -6
0 -48 -26 -93 -57z m189 -47 l48 -31 0 -102 0 -103 -40 0 -40 0 0 70 0 71 -62
-3 -63 -3 0 -68 0 -67 -42 0 -43 0 0 100 0 99 73 50 c81 55 62 57 169 -13z"/>
</g>
</svg>
