<?xml version="1.0" standalone="no"?>
<!DOCTYPE svg PUBLIC "-//W3C//DTD SVG 20010904//EN"
 "http://www.w3.org/TR/2001/REC-SVG-20010904/DTD/svg10.dtd">
<svg version="1.0" xmlns="http://www.w3.org/2000/svg"
 width="51.000000pt" height="51.000000pt" viewBox="0 0 51.000000 51.000000"
 preserveAspectRatio="xMidYMid meet">
<metadata>
Created by potrace 1.10, written by Peter Selinger 2001-2011
</metadata>
<g transform="translate(0.000000,51.000000) scale(0.100000,-0.100000)"
fill="#000000" stroke="none">
<path d="M242 419 c-41 -8 -88 -52 -101 -93 -5 -17 -12 -56 -16 -86 -3 -30 -8
-67 -11 -83 -6 -27 -5 -27 33 -22 35 6 39 4 55 -24 34 -61 116 -61 152 0 16
28 22 30 52 24 40 -7 40 -9 19 119 -12 79 -18 94 -48 124 -38 37 -85 52 -135
41z m105 -61 c26 -24 39 -61 47 -135 l7 -53 -126 0 c-116 0 -126 2 -121 18 2
9 7 43 11 75 7 63 39 112 78 120 37 8 80 -2 104 -25z m-23 -233 c-13 -32 -81
-30 -92 3 -2 8 13 12 47 12 41 0 49 -3 45 -15z"/>
</g>
</svg>
