<?xml version="1.0" standalone="no"?>
<!DOCTYPE svg PUBLIC "-//W3C//DTD SVG 20010904//EN"
 "http://www.w3.org/TR/2001/REC-SVG-20010904/DTD/svg10.dtd">
<svg version="1.0" xmlns="http://www.w3.org/2000/svg"
 width="63.000000pt" height="54.000000pt" viewBox="0 0 63.000000 54.000000"
 preserveAspectRatio="xMidYMid meet">
<metadata>
Created by potrace 1.10, written by Peter Selinger 2001-2011
</metadata>
<g transform="translate(0.000000,54.000000) scale(0.100000,-0.100000)"
fill="#000000" stroke="none">
<path d="M153 420 c-22 -9 -23 -13 -23 -153 0 -98 4 -147 12 -155 8 -8 59 -12
164 -12 125 0 155 3 168 16 13 12 16 41 16 145 0 174 5 169 -177 168 -76 0
-148 -4 -160 -9z m297 -60 c0 -28 -6 -33 -72 -64 l-73 -33 -70 34 c-61 29 -70
37 -73 63 l-3 30 145 0 146 0 0 -30z m-211 -104 l65 -33 73 33 73 33 0 -74 0
-75 -145 0 -145 0 0 75 c0 41 3 75 8 75 4 -1 36 -16 71 -34z"/>
</g>
</svg>
